<?xml version="1.0" encoding="UTF-8"?><svg id="a" xmlns="http://www.w3.org/2000/svg" xmlns:xlink="http://www.w3.org/1999/xlink" viewBox="0 0 1117.84 878.92"><defs><style>.f{stroke:url(#e);}.f,.g,.h,.i{fill:#fff;stroke-miterlimit:10;stroke-width:10px;}.g{stroke:url(#d);}.h{stroke:url(#c);}.i{stroke:url(#b);}</style><linearGradient id="b" x1="559.01" y1="1.18" x2="559.01" y2="879.18" gradientTransform="matrix(1, 0, 0, 1, 0, 0)" gradientUnits="userSpaceOnUse"><stop offset="0" stop-color="#cc4fc2"/><stop offset=".06" stop-color="#c256c2"/><stop offset=".51" stop-color="#7a8dc9"/><stop offset=".84" stop-color="#4eafcd"/><stop offset="1" stop-color="#3dbdcf"/></linearGradient><linearGradient id="c" x1="695.01" y1="632.19" x2="695.01" y2="682.84" xlink:href="#b"/><linearGradient id="d" x1="237.02" y1="402.19" x2="237.02" y2="685.17" xlink:href="#b"/><linearGradient id="e" x1="365.13" y1="403.05" x2="365.13" y2="686.04" xlink:href="#b"/></defs><path class="i" d="M1073.22,6.18H44.8C22.83,6.18,5.01,24,5.01,45.97V834.39c0,21.97,17.82,39.79,39.79,39.79H1073.22c21.97,0,39.79-17.81,39.79-39.79V45.97c0-21.97-17.81-39.79-39.79-39.79ZM389.51,92.72c20.94-18.63,50.16-15.24,68.96,8,11.41,19.23,11.34,38.02-2.11,56.31-19.23,21.49-49.06,23.2-68.6,3.94-19.16-18.89-18.36-50.35,1.75-68.25Zm-140,0c20.94-18.63,50.16-15.24,68.96,8,11.41,19.23,11.34,38.02-2.11,56.31-19.23,21.49-49.06,23.2-68.6,3.94-19.16-18.89-18.36-50.35,1.75-68.25Zm-139,0c20.94-18.63,50.16-15.24,68.96,8,11.41,19.23,11.34,38.02-2.11,56.31-19.23,21.49-49.06,23.2-68.6,3.94-19.16-18.89-18.36-50.35,1.75-68.25Zm948.5,678.7c0,29.69-24.07,53.76-53.76,53.76H112.77c-29.69,0-53.76-24.07-53.76-53.76V349.94c0-29.69,24.07-53.76,53.76-53.76H1005.25c29.69,0,53.76,24.07,53.76,53.76v421.48Z"/><rect class="h" x="445.01" y="637.19" width="500" height="40.65" rx="13.86" ry="13.86"/><g><path class="g" d="M316.93,549.12c2.68-3.56,2.4-8.63-.83-11.86l-127.41-127.41c-3.55-3.55-9.3-3.55-12.84,0l-17.16,17.16c-3.55,3.55-3.55,9.3,0,12.84l102.84,102.84-104.69,104.69c-3.04,3.05-2.18,8.85,1.93,12.96l16.08,16.08c4.11,4.11,9.91,4.98,12.96,1.93l110.56-110.56c.2-.17,.39-.34,.58-.53l17.16-17.16c.19-.19,.36-.38,.53-.58l.35-.35-.04-.04Z"/><path class="f" d="M445.03,549.99c2.68-3.56,2.41-8.63-.83-11.87l-127.41-127.41c-3.55-3.55-9.3-3.55-12.84,0l-17.16,17.16c-3.55,3.55-3.55,9.3,0,12.84l102.84,102.84-104.7,104.7c-3.04,3.05-2.18,8.85,1.93,12.96l16.08,16.08c4.11,4.11,9.91,4.98,12.96,1.93l110.56-110.56c.2-.17,.4-.34,.59-.53l17.16-17.16c.19-.19,.36-.39,.53-.59l.34-.34-.04-.04Z"/></g></svg>