<?xml version="1.0" encoding="UTF-8"?><svg id="a" xmlns="http://www.w3.org/2000/svg" viewBox="0 0 1116.97 877.84"><defs><style>.b{fill:#fff;stroke:#ef87aa;stroke-miterlimit:10;stroke-width:10px;}</style></defs><path class="b" d="M1073.05,5.17H44.63C22.66,5.17,4.84,22.99,4.84,44.96V833.38c0,21.97,17.82,39.79,39.79,39.79H1073.05c21.97,0,39.79-17.81,39.79-39.79V44.96c0-21.97-17.81-39.79-39.79-39.79ZM389.34,91.71c20.94-18.63,50.16-15.24,68.96,8,11.41,19.23,11.34,38.02-2.11,56.31-19.23,21.49-49.06,23.2-68.6,3.94-19.16-18.89-18.36-50.35,1.75-68.25Zm-140,0c20.94-18.63,50.16-15.24,68.96,8,11.41,19.23,11.34,38.02-2.11,56.31-19.23,21.49-49.06,23.2-68.6,3.94-19.16-18.89-18.36-50.35,1.75-68.25Zm-139,0c20.94-18.63,50.16-15.24,68.96,8,11.41,19.23,11.34,38.02-2.11,56.31-19.23,21.49-49.06,23.2-68.6,3.94-19.16-18.89-18.36-50.35,1.75-68.25Zm948.5,678.7c0,29.69-24.07,53.76-53.76,53.76H112.6c-29.69,0-53.76-24.07-53.76-53.76V348.93c0-29.69,24.07-53.76,53.76-53.76H1005.08c29.69,0,53.76,24.07,53.76,53.76v421.48Z"/><rect class="b" x="444.84" y="636.18" width="500" height="40.65" rx="13.86" ry="13.86"/><g><path class="b" d="M316.75,548.12c2.68-3.56,2.4-8.63-.83-11.86l-127.41-127.41c-3.55-3.55-9.3-3.55-12.84,0l-17.16,17.16c-3.55,3.55-3.55,9.3,0,12.84l102.84,102.84-104.69,104.69c-3.04,3.05-2.18,8.85,1.93,12.96l16.08,16.08c4.11,4.11,9.91,4.98,12.96,1.93l110.56-110.56c.2-.17,.39-.34,.58-.53l17.16-17.16c.19-.19,.36-.38,.53-.58l.35-.35-.04-.04Z"/><path class="b" d="M444.85,548.99c2.68-3.56,2.41-8.63-.83-11.87l-127.41-127.41c-3.55-3.55-9.3-3.55-12.84,0l-17.16,17.16c-3.55,3.55-3.55,9.3,0,12.84l102.84,102.84-104.7,104.7c-3.04,3.05-2.18,8.85,1.93,12.96l16.08,16.08c4.11,4.11,9.91,4.98,12.96,1.93l110.56-110.56c.2-.17,.4-.34,.59-.53l17.16-17.16c.19-.19,.36-.39,.53-.59l.34-.34-.04-.04Z"/></g></svg>