<?xml version="1.0" encoding="UTF-8"?><svg id="a" xmlns="http://www.w3.org/2000/svg" xmlns:xlink="http://www.w3.org/1999/xlink" viewBox="0 0 1108 868"><defs><style>.c{fill:#3dbdcf;}.d{fill:url(#b);}</style><linearGradient id="b" x1="555.59" y1="14.45" x2="552.41" y2="853.58" gradientTransform="matrix(1, 0, 0, 1, 0, 0)" gradientUnits="userSpaceOnUse"><stop offset="0" stop-color="#cc4fc2"/><stop offset=".06" stop-color="#c256c2"/><stop offset=".51" stop-color="#7a8dc9"/><stop offset=".84" stop-color="#4eafcd"/><stop offset="1" stop-color="#3dbdcf"/></linearGradient></defs><path class="d" d="M1068.21,0H39.79C17.82,0,0,17.82,0,39.79V828.21c0,21.97,17.82,39.79,39.79,39.79H1068.21c21.97,0,39.79-17.81,39.79-39.79V39.79c0-21.97-17.81-39.79-39.79-39.79ZM384.5,86.54c20.94-18.63,50.16-15.24,68.96,8,11.41,19.23,11.34,38.02-2.11,56.31-19.23,21.49-49.06,23.2-68.6,3.94-19.16-18.89-18.36-50.35,1.75-68.25Zm-140,0c20.94-18.63,50.16-15.24,68.96,8,11.41,19.23,11.34,38.02-2.11,56.31-19.23,21.49-49.06,23.2-68.6,3.94-19.16-18.89-18.36-50.35,1.75-68.25Zm-139,0c20.94-18.63,50.16-15.24,68.96,8,11.41,19.23,11.34,38.02-2.11,56.31-19.23,21.49-49.06,23.2-68.6,3.94-19.16-18.89-18.36-50.35,1.75-68.25Zm948.5,678.7c0,29.69-24.07,53.76-53.76,53.76H107.76c-29.69,0-53.76-24.07-53.76-53.76V343.76c0-29.69,24.07-53.76,53.76-53.76H1000.24c29.69,0,53.76,24.07,53.76,53.76v421.48Z"/><rect class="c" x="440" y="631.01" width="500" height="40.65" rx="13.86" ry="13.86"/><g><g><rect class="c" x="211.16" y="383.2" width="42.43" height="198.35" rx="9.08" ry="9.08" transform="translate(-273.03 305.6) rotate(-45)"/><path class="c" d="M311.96,542.99l-129.18,129.18c-3.05,3.05-8.85,2.18-12.96-1.93l-16.08-16.08c-4.11-4.11-4.97-9.91-1.93-12.96l129.18-129.18"/></g><g><rect class="c" x="339.27" y="384.07" width="42.43" height="198.35" rx="9.08" ry="9.08" transform="translate(-236.12 396.44) rotate(-45)"/><path class="c" d="M440.06,543.86l-129.18,129.18c-3.05,3.05-8.85,2.18-12.96-1.93l-16.08-16.08c-4.11-4.11-4.97-9.91-1.93-12.96l129.18-129.18"/></g></g></svg>