<?xml version="1.0" encoding="UTF-8"?>
<svg width="512pt" height="512pt" version="1.1" viewBox="0 0 512 512" xmlns="http://www.w3.org/2000/svg">
 <g>
  <path d="m25.602 0h460.8c14.137 0 25.602 14.137 25.602 25.602v460.8c0 14.137-11.461 25.602-25.602 25.602h-460.8c-14.137 0-25.602-14.137-25.602-25.602v-460.8c0-14.137 11.461-25.602 25.602-25.602z" fill="#fff"/>
  <path d="m363.48 170.02v150.47c0 23.711-19.277 42.992-42.992 42.992h-150.47c0 11.82 9.6797 21.496 21.496 21.496h171.96c11.824 0 21.5-9.6758 21.5-21.496v-171.97c0-11.816-9.6758-21.496-21.496-21.496z" fill="#9b1b90"/>
  <path d="m127.02 180.77v139.72c0 11.816 9.6758 21.496 21.496 21.496h171.97c11.816 0 21.496-9.6797 21.496-21.496v-139.72zm88.207 88.207-40.762 40.77-15.199-15.199 33.164-33.164-33.164-33.172 15.199-15.195 40.762 40.766c4.2031 4.1953 4.1875 11 0 15.195zm94.512 35.395h-75.238v-21.496h75.238z" fill="#9b1b90"/>
  <path d="m341.98 159.27v-10.746c0-11.82-9.6797-21.5-21.496-21.5h-171.96c-11.82 0-21.5 9.6797-21.5 21.5v10.746z" fill="#9b1b90"/>
 </g>
</svg>
