<?xml version="1.0" encoding="UTF-8"?>
<svg width="512pt" height="512pt" version="1.1" viewBox="0 0 512 512" xmlns="http://www.w3.org/2000/svg">
 <g>
  <path d="m512 256c0 141.39-114.61 256-256 256s-256-114.61-256-256 114.61-256 256-256 256 114.61 256 256" fill="#fff"/>
  <path d="m211.16 187.48c1.0586 10.832 2.9219 24.789 4.332 34.613 0.35156 2.418 0.70703 4.8359 1.0078 7.1523 0.60547 3.9297 1.2109 7.707 1.7148 11.082 1.4609 9.6211 2.5703 16.375 2.5703 16.473v0.003907c0.41016 2.4375 2.5156 4.2227 4.9883 4.2344h60.457c2.4688-0.011718 4.5742-1.7969 4.9844-4.2344 0-0.10156 1.1094-6.9531 2.6211-16.625 0.50391-3.375 1.0586-7.1523 1.6641-11.082 0.30078-2.3164 0.65625-4.6836 1.0078-7.1055 2.168-15.113 3.5781-26.398 4.3828-34.613 0.050781-0.80469 0.39062-5.1406 0.45312-6.8516 0.070312-1.9258 0.050781-6.0977-0.10156-7.707-0.33203-4.2344-1.0391-8.4336-2.1172-12.543-2.4609-9.6016-6.2969-18.801-11.383-27.309-9.3164 6.8047-20.27 11.012-31.742 12.195-11.477-1.168-22.434-5.375-31.738-12.195-5.0352 8.5352-8.8672 17.727-11.387 27.309-1.0742 4.1445-1.7812 8.375-2.1172 12.645-0.17578 2.582-0.21094 5.1719-0.10156 7.7578 0.082031 1.7031 0.50391 6.8008 0.50391 6.8008zm44.84-27.203c5.3438 0 10.473 2.1211 14.25 5.9023 3.7812 3.7773 5.9023 8.9062 5.9023 14.25s-2.1211 10.469-5.9023 14.25c-3.7773 3.7773-8.9062 5.9023-14.25 5.9023s-10.469-2.125-14.25-5.9023c-3.7773-3.7812-5.9023-8.9062-5.9023-14.25 0-5.3477 2.1211-10.473 5.9023-14.254 3.7773-3.7773 8.9062-5.9023 14.25-5.8984zm60.91 93.961c-2.9297-6.7148-7.1016-12.816-12.293-17.988 0.60547-3.9805 1.2109-8.3633 1.8633-12.797 1.5625-11.035 2.7695-20.152 3.6289-27.508 10.914 16.199 16.641 35.336 16.426 54.867v1.3594c-0.007812 2.375-1.6602 4.4297-3.9805 4.9375-0.35156 0.058594-0.70313 0.089844-1.0586 0.10156-1.9805-0.003907-3.7773-1.168-4.5859-2.9727zm-60.91-119.15c-9.543-1.2148-18.609-4.8984-26.297-10.68 5.4883-7.6602 15.766-19.547 26.297-19.547s20.809 11.941 26.301 19.598c-7.7148 5.7305-16.77 9.3906-26.301 10.629zm-10.078 45.344h0.003906c0-4.0781 2.4531-7.75 6.2188-9.3086 3.7656-1.5625 8.0977-0.69922 10.98 2.1836 2.8828 2.8828 3.7422 7.2148 2.1836 10.98s-5.2344 6.2188-9.3086 6.2188c-5.5586-0.015625-10.059-4.5156-10.074-10.074zm-43.984 15.516c1.0586 9.4219 2.4688 19.801 3.5781 27.559 0.65625 4.4844 1.2578 8.8672 1.8633 12.898h0.003906c-5.1914 5.1523-9.3633 11.234-12.293 17.934-0.79297 1.8242-2.5977 2.9922-4.5859 2.9727-0.35156-0.007813-0.70703-0.039063-1.0586-0.097656-2.3203-0.51172-3.9727-2.5625-3.9766-4.9375v-1.1602c-0.23828-19.637 5.5078-38.879 16.473-55.168zm205.21 165.86v20.152c-0.003906 6.6797-2.6602 13.086-7.3828 17.809-4.7227 4.7227-11.129 7.3789-17.809 7.3828h-251.91c-6.6797-0.003906-13.086-2.6602-17.809-7.3828-4.7227-4.7227-7.3789-11.129-7.3789-17.809v-20.152c0.007813-2.7812 2.2578-5.0312 5.0352-5.0391h95.773c0.078125 3.4336 0.69141 6.832 1.8164 10.078 1.6289 5.6289 4.9844 10.602 9.5977 14.219 4.6094 3.6172 10.242 5.6914 16.094 5.9336h45.648c5.8555-0.24219 11.484-2.3164 16.098-5.9336 4.6094-3.6172 7.9648-8.5898 9.5938-14.219 1.125-3.2461 1.7383-6.6445 1.8164-10.078h95.773c2.7773 0.007812 5.0312 2.2578 5.0391 5.0391zm-188.32 5.0391c-1.6211-2.6172-2.6367-5.5586-2.9727-8.6172h80.305c-0.33594 3.0586-1.3516 6-2.9727 8.6172-2.9336 5.1992-8.3867 8.4727-14.355 8.6133h-45.648c-5.9688-0.14062-11.422-3.4141-14.355-8.6133zm178.25-191.2c0.023438-4.0391-1.5547-7.9258-4.3867-10.805-2.832-2.8789-6.6875-4.5195-10.727-4.5625h-72.449c1.2891 5.6719 1.9648 11.465 2.0156 17.281 0 1.1602-0.050781 2.3164-0.10156 3.5273v0.25c0.90625 0.95703 1.7617 2.0156 2.6211 3.0234 14.906 18.914 22.875 42.371 22.57 66.453v1.3594c-0.007813 3.4531-1.1992 6.7969-3.3711 9.4844-2.1719 2.6836-5.1953 4.5469-8.5703 5.2773-1.0391 0.25-2.1055 0.36719-3.1719 0.35156-2.9141 0-5.7695-0.84375-8.2148-2.4258-2.4492-1.582-4.3906-3.8359-5.5898-6.4922-1.3828-3.1562-3.0859-6.1602-5.0898-8.9648-0.85547 5.4922-1.4609 9.0195-1.4609 9.0703v-0.003906c-0.57422 3.5391-2.3906 6.7539-5.125 9.0703-2.7344 2.3203-6.2031 3.5859-9.7852 3.5742h-60.457c-3.5938 0.011719-7.0703-1.2617-9.8047-3.5898-2.7344-2.3281-4.5469-5.5586-5.1094-9.1055 0-0.050781-0.60547-3.4766-1.4609-8.8672-2.0273 2.7812-3.75 5.7695-5.1406 8.918-1.1836 2.6602-3.1133 4.918-5.5547 6.5s-5.2891 2.4219-8.1992 2.418c-1.082 0.011719-2.168-0.10547-3.2227-0.35156-3.3633-0.74219-6.375-2.6094-8.5391-5.293-2.1602-2.6836-3.3438-6.0234-3.3516-9.4688v-1.1602c-0.40625-25.508 8.5547-50.281 25.191-69.625v-0.25391c-0.32812-7.0469 0.35156-14.102 2.0156-20.957h-72.551c-4.0391 0.042968-7.8945 1.6836-10.727 4.5625-2.832 2.8789-4.4102 6.7656-4.3867 10.805v171.04h282.13zm-146.11 120.66c0-2.7812 2.2578-5.0391 5.0391-5.0391s5.0391 2.2578 5.0391 5.0391v10.078c0 2.7812-2.2578 5.0352-5.0391 5.0352s-5.0391-2.2539-5.0391-5.0352zm5.0391 40.305c-18.539 0-24.184-33-25.141-39.598-0.21094-1.3359 0.12109-2.6992 0.92578-3.7852 0.80078-1.0898 2.0078-1.8086 3.3438-1.9961 1.3398-0.19141 2.6992 0.16797 3.7695 0.98828 1.0742 0.82031 1.7695 2.0391 1.9375 3.3828 1.8125 12.441 7.8594 30.934 15.164 30.934s13.352-18.488 15.164-30.934c0.16797-1.3438 0.86328-2.5625 1.9375-3.3828 1.0742-0.82031 2.4297-1.1797 3.7695-0.98828 1.3359 0.1875 2.543 0.90625 3.3477 1.9961 0.80078 1.0859 1.1328 2.4492 0.92188 3.7852-0.95703 6.5977-6.6016 39.598-25.141 39.598z" fill="#f40056"/>
 </g>
</svg>
