<svg xmlns="http://www.w3.org/2000/svg" viewBox="0 0 2048 2048">
  <path d="M640 0h1408v640H640V0zm1280 512V128H768v384h1152zM640 896V768h1408v640h-896q0-32-5-64t-13-64h786V896H768v18q-32-8-64-13t-64-5zm0 128q79 0 149 30t122 82 83 123 30 149q0 80-30 149t-82 122-123 83-149 30q-60 0-117-18t-105-53L92 2046l-90-90 325-326q-35-48-53-105t-18-117q0-79 30-149t82-122 122-83 150-30zm0 640q53 0 99-20t82-55 55-81 20-100q0-53-20-99t-55-82-81-55-100-20q-53 0-99 20t-82 55-55 81-20 100q0 53 20 99t55 82 81 55 100 20z" />
</svg>
