<?xml version="1.0" encoding="UTF-8"?>
<svg width="512pt" height="512pt" version="1.1" viewBox="0 0 512 512" xmlns="http://www.w3.org/2000/svg">
 <g>
  <path d="m512 256c0 141.39-114.61 256-256 256s-256-114.61-256-256 114.61-256 256-256 256 114.61 256 256" fill="#fff"/>
  <path d="m407.22 339.51h-118.66c-0.64453 0-1.2891 0.64453-1.2891 1.2891v4.8359c0 2.9023-2.2578 5.4805-5.4805 5.4805l-51.27 0.003906c-2.9023 0-5.4805-2.5781-5.4805-5.4805v-4.5156c0-0.64453-0.64453-1.2891-1.2891-1.2891h-118.98c-0.96875 0-1.9336 0.96875-1.9336 1.9336v19.668c0 9.3516 7.7383 17.09 17.09 17.09h272.14c9.3516 0 17.09-7.7383 17.09-17.09v-19.668c0-1.6133-0.96875-2.2578-1.9375-2.2578z" fill="#f40056"/>
  <path d="m141.21 325h229.25c8.3828 0 14.832-6.7695 14.832-14.832v-143.16c0-18.055-14.832-32.891-32.891-32.891h-193.14c-18.055 0-32.891 14.832-32.891 32.891v143.16c0 8.3828 6.7734 14.832 14.832 14.832zm15.156-158c0-1.6133 1.2891-2.9023 2.9023-2.9023h193.46c1.6133 0 2.9023 1.2891 2.9023 2.9023v128.33l-199.27-0.003906z" fill="#f40056"/>
  <path d="m298.88 225.69c0-3.5469-2.9023-6.125-6.125-6.125h-19.668c-1.2891 0-1.9336-0.96875-1.9336-2.2578 1.2891-8.707 3.2227-11.609 3.8711-20.312 0.96875-8.707-11.285-9.9961-13.219-2.2578-3.2227 14.832-15.477 24.828-19.668 27.73-0.96875 0.64453-1.2891 1.6133-1.2891 2.5781v35.469c0 1.2891 0.64453 2.2578 1.9336 2.9023 4.1914 1.9336 9.3516 5.8047 23.859 5.8047h22.895c3.5469 0 6.125-2.9023 6.125-6.125 0-3.5469-2.9023-6.125-6.125-6.125h0.64453c3.2227 0 6.125-2.2578 6.4492-5.4805 0.64453-3.8711-2.5781-7.0938-6.125-7.0938l0.96094-0.007813c3.2227 0 6.125-2.2578 6.4492-5.4805 0.64453-3.8711-2.5781-7.0938-6.125-7.0938h0.96875c3.2227 0.32422 6.1211-2.5781 6.1211-6.125z" fill="#f40056"/>
  <path d="m231.5 223.43h-15.477c-1.6133 0-3.2227 1.2891-3.2227 3.2227v32.891c0 1.6133 1.2891 3.2227 3.2227 3.2227h15.477c1.6133 0 3.2227-1.2891 3.2227-3.2227v-32.887c0-1.9375-1.2891-3.2266-3.2227-3.2266z" fill="#f40056"/>
 </g>
</svg>
