<?xml version="1.0" encoding="UTF-8"?>
<svg width="512pt" height="512pt" version="1.1" viewBox="0 0 512 512" xmlns="http://www.w3.org/2000/svg">
 <defs>
  <clipPath id="b">
   <path d="m94.781 136h292.22v56h-292.22z"/>
  </clipPath>
  <clipPath id="a">
   <path d="m94.781 210h213.22v168h-213.22z"/>
  </clipPath>
 </defs>
 <path d="m512 256c0 141.39-114.61 256-256 256s-256-114.61-256-256 114.61-256 256-256 256 114.61 256 256" fill="#fff"/>
 <g clip-path="url(#b)">
  <path d="m386.07 145.75c0-4.9961-4.0547-9.0469-9.043-9.0469h-273.2c-4.9922 0-9.043 4.0469-9.043 9.0469v46.09h291.29zm-252.1 29.691c-3.0234 3.2227-7.0938 4.9531-11.402 4.9531-4.3125 0-8.4023-1.7266-11.406-4.7266-3.0039-3.0234-4.7305-7.3359-4.7305-11.41 0-4.3086 1.7266-8.6094 4.7305-11.617 5.8281-5.8242 16.785-6.0234 22.809 0 3.0078 3 4.7305 7.3164 4.7305 11.617 0 4.0742-1.7188 8.1758-4.7305 11.184zm50.758 0.21875c-3 2.7969-7.0898 4.5117-11.406 4.5117-4.2891 0-8.3789-1.7148-11.383-4.5117-3.0234-3.0234-4.7461-7.3242-4.7461-11.406 0-4.3086 1.7188-8.6172 4.7461-11.621 5.793-5.8203 16.762-6.0312 22.785 0.20703 3.0273 2.7969 4.7305 7.1016 4.7305 11.41-0.007813 4.0781-1.7031 8.3828-4.7266 11.41zm50.77 0.003906c-3.0234 3-7.0977 4.7266-11.203 4.7266-4.2891 0-8.3828-1.7266-11.387-4.7266-3.2305-3.0234-4.9492-7.3281-4.9492-11.621 0-4.0938 1.7148-8.1719 4.7188-11.199 6.4727-6.2344 16.789-6.2344 22.816-0.20703 3.2188 3.0039 4.9297 7.3125 4.9297 11.406 0 4.2969-1.9297 8.5977-4.9258 11.621z" fill="#f40056"/>
 </g>
 <path d="m415.02 282.14c-19.238-23.113-38.48-46.23-57.715-69.344-1.3164-1.5742-2.8359-2.2188-4.3281-2.2188-0.12109 0-0.23828 0.007813-0.35938 0.011719-0.12109-0.007813-0.23828-0.011719-0.35938-0.011719-1.4922 0-3.0234 0.64062-4.3281 2.2188-19.238 23.113-38.48 46.23-57.715 69.344-3.5625 4.2773-1.4922 11.316 4.6836 11.316h24.223v83.824 0.69141c0 3.6133 3.0117 6.6328 6.625 6.6328h53.75c3.6133 0 6.625-3.0195 6.625-6.6328v-84.516h24.223c6.168 0 8.2422-7.0391 4.6758-11.316z" fill="#f40056"/>
 <g clip-path="url(#a)">
  <path d="m259.93 303.6c-6.4648-13.797-4.293-30.324 5.5117-42.086l28.855-34.672 13.535-16.262h-213.05v157.66c0 4.9961 4.0508 9.0469 9.043 9.0469h183.05v-52.395c-11.777-2.418-21.723-10.117-26.953-21.289z" fill="#f40056"/>
 </g>
</svg>
