<?xml version="1.0" encoding="UTF-8"?>
<svg width="512pt" height="512pt" version="1.1" viewBox="0 0 512 512" xmlns="http://www.w3.org/2000/svg">
 <g>
  <path d="m512 256c0 141.39-114.61 256-256 256s-256-114.61-256-256 114.61-256 256-256 256 114.61 256 256" fill="#fff"/>
  <path d="m376.18 166.89c0-13.484-11.141-24.621-24.621-24.621h-190.54c-13.484 0-24.621 11.137-24.621 24.621v137.18h239.78zm-120.18 1.1719c16.414 0 29.312 12.898 29.312 29.312s-12.898 29.312-29.312 29.312-29.312-12.898-29.312-29.312 13.484-29.312 29.312-29.312zm51.004 120.18c0 3.5156-2.3438 5.8633-5.8633 5.8633h-90.281c-3.5156 0-5.8633-2.3438-5.8633-5.8633v-7.0352c0-26.383 22.863-48.074 51.004-48.074s51.004 21.691 51.004 48.074z" fill="#f40056"/>
  <path d="m390.84 315.8h-269.68c-2.9297 0-5.8633 2.3438-5.8633 5.8633v15.242c0 18.172 14.656 32.828 32.828 32.828h215.74c18.172 0 32.828-14.656 32.828-32.828v-15.242c0-2.9297-2.3438-5.8633-5.8594-5.8633z" fill="#f40056"/>
 </g>
</svg>
