<?xml version="1.0" encoding="UTF-8"?>
<svg width="512pt" height="512pt" version="1.1" viewBox="0 0 512 512" xmlns="http://www.w3.org/2000/svg">
 <g>
  <path d="m512 256c0 141.39-114.61 256-256 256s-256-114.61-256-256 114.61-256 256-256 256 114.61 256 256" fill="#fff"/>
  <path d="m124.38 300.58v-135.16c0-19.098 15.539-34.637 34.637-34.637h193.96c19.098 0 34.637 15.539 34.637 34.637l0.003907 135.16h-30.855v-122.61c0-10.07-8.1914-18.262-18.262-18.262h-165c-10.07 0-18.262 8.1914-18.262 18.262l-0.003907 122.61zm49.75-121.98h163.74v121.98h-163.74zm81.348 40.336c0 5.2188 4.2305 9.4453 9.4453 9.4453h43.668c5.2188 0 9.4453-4.2305 9.4453-9.4453 0-5.2188-4.2305-9.4453-9.4453-9.4453h-43.668c-5.2188-0.003906-9.4453 4.2266-9.4453 9.4453zm0 42.863c0 5.2188 4.2305 9.4453 9.4453 9.4453h43.668c5.2188 0 9.4453-4.2305 9.4453-9.4453 0-5.2188-4.2305-9.4453-9.4453-9.4453h-43.668c-5.2188 0-9.4453 4.2305-9.4453 9.4453zm-59.781-42.797 10.902 15.391s2.9648 4.207 7.707 3.9883c2.7305 0 5.3359-1.1836 7.1367-3.2578l22.562-26.016c3.418-3.9414 2.9922-9.9062-0.94922-13.324s-9.9062-2.9922-13.324 0.94922l-14.676 16.922-3.9453-5.5703c-3.0156-4.2578-8.9141-5.2656-13.168-2.25-4.2539 3.0117-5.2617 8.9102-2.2461 13.168zm0 46.789 10.902 15.402s2.5469 3.9883 7.7109 3.9883c2.7305 0 5.3398-1.1836 7.1367-3.2617l22.562-26.039c3.418-3.9414 2.9883-9.9102-0.95312-13.324-3.9414-3.4141-9.9062-2.9883-13.324 0.95312l-14.672 16.934-3.9414-5.5703c-3.0156-4.2578-8.9102-5.2656-13.168-2.2539-4.2617 3.0195-5.2695 8.9141-2.2539 13.172zm103.39 73.41 11.242-19.727h-108.66l11.242 19.727zm105.36-11.633c-0.44531-4.5859-4.5273-8.0938-9.4102-8.0938h-62.938l-19.316 33.848c-1.6797 2.9492-4.8125 4.7695-8.207 4.7695h-97.152c-3.3945 0-6.5273-1.8203-8.207-4.7695l-19.293-33.848h-63.027c-4.8867 0-8.9609 3.5078-9.4102 8.0938 0 0-5.6445 29.914 26.285 52.227 1.4609 1.0273 3.3008 1.4219 5.1133 1.4219h234.15c1.8125 0 3.6914-0.35156 5.1211-1.4219 32.348-24.203 26.289-52.227 26.289-52.227z" fill="#f40056"/>
 </g>
</svg>
