<?xml version="1.0" encoding="UTF-8"?><svg id="a" xmlns="http://www.w3.org/2000/svg" viewBox="0 0 1108 868"><defs><style>.b{fill:#eb5281;}.c{fill:#ef87aa;}.d{fill:#fff;}.e{fill:#fefefe;}.f{fill:#e1325a;}</style></defs><path class="b" d="M1108,242.84V828.21c0,21.98-17.82,39.79-39.79,39.79H39.79C17.82,868,0,850.18,0,828.21V242.84"/><path class="f" d="M0,242.84V39.79C0,17.82,17.82,0,39.79,0H1068.21c21.98,0,39.79,17.82,39.79,39.79V242.84"/><path class="e" d="M172.35,150.85c-19.23,21.49-49.06,23.2-68.6,3.94-19.16-18.89-18.36-50.35,1.75-68.25,20.94-18.63,50.16-15.24,68.96,8,11.41,19.23,11.34,38.02-2.11,56.31Z"/><path class="e" d="M311.35,150.85c-19.23,21.49-49.06,23.2-68.6,3.94-19.16-18.89-18.36-50.35,1.75-68.25,20.94-18.63,50.16-15.24,68.96,8,11.41,19.23,11.34,38.02-2.11,56.31Z"/><path class="e" d="M451.35,150.85c-19.23,21.49-49.06,23.2-68.6,3.94-19.16-18.89-18.36-50.35,1.75-68.25,20.94-18.63,50.16-15.24,68.96,8,11.41,19.23,11.34,38.02-2.11,56.31Z"/><rect class="c" x="54" y="290" width="1000" height="529" rx="53.76" ry="53.76"/><rect class="d" x="669.67" y="401.33" width="40.65" height="500" rx="13.86" ry="13.86" transform="translate(38.67 1341.33) rotate(-90)"/><g><g><rect class="d" x="211.16" y="383.2" width="42.43" height="198.35" rx="9.08" ry="9.08" transform="translate(-273.03 305.6) rotate(-45)"/><path class="d" d="M311.96,542.99l-129.18,129.18c-3.05,3.05-8.85,2.18-12.96-1.93l-16.08-16.08c-4.11-4.11-4.97-9.91-1.93-12.96l129.18-129.18"/></g><g><rect class="d" x="339.26" y="384.07" width="42.43" height="198.35" rx="9.08" ry="9.08" transform="translate(-236.12 396.43) rotate(-45)"/><path class="d" d="M440.06,543.86l-129.18,129.18c-3.05,3.05-8.85,2.18-12.96-1.93l-16.08-16.08c-4.11-4.11-4.97-9.91-1.93-12.96l129.18-129.18"/></g></g></svg>