<?xml version="1.0" encoding="UTF-8"?>
<svg width="512pt" height="512pt" version="1.1" viewBox="0 0 512 512" xmlns="http://www.w3.org/2000/svg">
 <g>
  <path d="m25.602 0h460.8c14.137 0 25.602 14.137 25.602 25.602v460.8c0 14.137-11.461 25.602-25.602 25.602h-460.8c-14.137 0-25.602-14.137-25.602-25.602v-460.8c0-14.137 11.461-25.602 25.602-25.602z" fill="#fff"/>
  <path d="m256 256c2.1055 0 4.1758-0.13672 6.2383-0.31641 0.83203-0.074219 1.6641-0.17578 2.5195-0.28125 1.1016-0.13672 2.2031-0.31641 3.2891-0.50391 1.0898-0.1875 2.2422-0.38281 3.3516-0.63672 0.15625-0.035157 0.30078-0.085938 0.45703-0.12109 1.5625-0.36328 3.1172-0.76953 4.6641-1.25-3.5664-10.246-11.207-18.566-21.113-22.996-7.3164-3.2539-13.535-8.5547-17.898-15.266-4.3672-6.7148-6.6914-14.547-6.6992-22.551 0.011718-6.5273-2.0273-12.895-5.8281-18.199l-2.3711-3.3203c-3.5195-4.8828-8.3711-8.6523-13.977-10.848-5.6055-2.1953-11.723-2.7305-17.625-1.5352-2.7305 6.4492-4.4805 13.27-5.1836 20.238-0.23047 2.3242-0.35938 4.6758-0.35938 7.0547h0.003906c0.019531 18.699 7.457 36.629 20.68 49.852 13.223 13.223 31.152 20.66 49.852 20.68z" fill="#9b1b90"/>
  <path d="m294.79 153.8 3.0938 5.4102v0.003906c2.7852 4.8867 3.8906 10.555 3.1445 16.133s-3.3047 10.758-7.2812 14.738c-3.4336 3.4375-5.0664 8.2773-4.4219 13.094 0.64453 4.8125 3.4961 9.0508 7.7109 11.461l2.2461 1.2812h0.003906c4.5195 2.5898 10.039 2.7461 14.695 0.41016l6.9531-3.4727c2.7539-6.4805 4.5195-13.336 5.2383-20.34 0.23047-2.3242 0.35938-4.6797 0.35938-7.0547v0.003906c-0.007812-2.4922-0.14062-4.9805-0.40625-7.457-0.10156-0.97266-0.29688-1.9102-0.4375-2.8672-0.21484-1.457-0.41406-2.9102-0.71484-4.3438-0.25-1.1875-0.58984-2.3359-0.90234-3.5273-0.3125-1.1875-0.59766-2.3125-0.96094-3.4453-0.39844-1.2305-0.87109-2.4336-1.3359-3.6328-0.39453-1.0312-0.78125-2.0625-1.2305-3.0742-0.50391-1.1758-1.0898-2.3164-1.668-3.4609-0.50391-1.0078-1.043-2.0156-1.6133-3.0234-0.57031-1.0078-1.2109-2.0469-1.8477-3.0234-0.71484-1.1133-1.457-2.207-2.2383-3.2734-0.57031-0.79297-1.1602-1.5859-1.7617-2.375-1.0508-1.3438-2.1562-2.6367-3.3203-3.8828-0.41797-0.46484-0.82812-0.9375-1.2578-1.3867v-0.003906c-1.6641-1.7344-3.4102-3.3867-5.2383-4.9453l-2.3086 1.6484c-3.1523 2.2344-5.3594 5.5625-6.1914 9.3359-0.83203 3.7734-0.23047 7.7188 1.6914 11.07z" fill="#9b1b90"/>
  <path d="m230.81 164.7 2.3711 3.3242h0.003906c5.0234 7.0117 7.7188 15.426 7.7031 24.055 0.003906 6.0547 1.7617 11.98 5.0586 17.055 3.3008 5.0781 8 9.0938 13.531 11.555 12.34 5.5195 21.883 15.844 26.414 28.578 10.547-4.9688 19.707-12.465 26.664-21.82-6.2188 1.3984-12.734 0.41016-18.254-2.7734l-2.2461-1.2852v0.003906c-6.9492-3.9688-11.648-10.953-12.711-18.883-1.0625-7.9336 1.6367-15.906 7.2969-21.559 2.4141-2.4219 3.9648-5.5625 4.4219-8.9492 0.45312-3.3867-0.21484-6.8281-1.9023-9.8008l-3.0938-5.4102c-3.1133-5.4297-4.125-11.816-2.8438-17.949 1.2812-6.1289 4.7695-11.574 9.8008-15.301-15.727-9.7969-34.695-12.977-52.758-8.8438-18.066 4.1328-33.766 15.242-43.668 30.906 13.512-0.24219 26.293 6.1445 34.211 17.098z" fill="#9b1b90"/>
  <path d="m245.93 336.61h20.152v-20.152h9.1992l-19.277-22.484-19.277 22.484h9.2031z" fill="#9b1b90"/>
  <path d="m114.93 386.99v5.0391-0.003906c0 1.3359 0.53125 2.6211 1.4766 3.5625 0.94531 0.94531 2.2266 1.4766 3.5625 1.4766h272.05c1.3359 0 2.6211-0.53125 3.5625-1.4766 0.94531-0.94141 1.4766-2.2266 1.4766-3.5625v-5.0352z" fill="#9b1b90"/>
  <path d="m386.99 200.58c0-1.3359-0.53125-2.6172-1.4766-3.5625-0.94531-0.94531-2.2266-1.4766-3.5625-1.4766h-46.043c-0.28125 2.2617-0.61328 4.5078-1.082 6.7109-0.070313 0.3125-0.17188 0.61328-0.24219 0.92578-0.1875 0.82031-0.41797 1.6289-0.62891 2.4375l42.957 0.003906v161.22h-241.83v-161.22h42.961c-0.87109-3.3164-1.5234-6.6797-1.957-10.078h-46.043c-2.7812 0-5.0352 2.2539-5.0352 5.0391v176.33h261.98z" fill="#9b1b90"/>
  <path d="m145.16 356.76h221.68v-141.07h-36.164c-0.35938 0.875-0.74219 1.7422-1.1289 2.6055-0.046875 0.10547-0.074219 0.21484-0.125 0.32422l-0.73438 1.6328-0.10547 0.050782-0.003906-0.003906c-8.332 17.301-22.539 31.078-40.086 38.875l0.023437 0.10547-1.1133 0.41797c-0.20312 0.085937-0.40625 0.14453-0.60938 0.23047l-2.3633 0.89062c-0.21484 0.082031-0.43359 0.13281-0.64453 0.21094-1.9531 0.71875-3.9336 1.3867-5.9609 1.9531-0.46484 0.13281-0.9375 0.23828-1.4023 0.36328-1.8438 0.50391-3.6914 0.9375-5.5859 1.2891-1.0078 0.19141-1.9766 0.30859-2.9609 0.45703-1.4219 0.20703-2.8281 0.45312-4.2734 0.58984-2.5195 0.24219-5.0391 0.38281-7.6016 0.38281v0.007813c-16.047-0.023437-31.719-4.8281-45.02-13.801-13.305-8.9766-23.629-21.711-29.656-36.582h-36.16zm110.84-78.277 41.184 48.051h-21.031v20.152h-40.305v-20.152h-21.027z" fill="#9b1b90"/>
 </g>
</svg>
