<?xml version="1.0" encoding="UTF-8"?>
<svg width="512pt" height="512pt" version="1.1" viewBox="0 0 512 512" xmlns="http://www.w3.org/2000/svg">
 <g>
  <path d="m25.602 0h460.8c14.137 0 25.602 14.137 25.602 25.602v460.8c0 14.137-11.461 25.602-25.602 25.602h-460.8c-14.137 0-25.602-14.137-25.602-25.602v-460.8c0-14.137 11.461-25.602 25.602-25.602z" fill="#fff"/>
  <path d="m222.95 284.33 137.83 10.266-63.5-173.06-98.477 96.961z" fill="#9b1b90"/>
  <path d="m168.54 277.95c1.2812 0 2.5352-0.23047 3.7852-0.69141 2.7305-1.0195 4.9336-3.0273 6.1523-5.6914 1.25-2.6641 1.3828-5.6602 0.36328-8.3906-1.5781-4.3086-5.7266-7.207-10.332-7.207-1.2812 0-2.5352 0.23047-3.75 0.65625-5.6914 2.1055-8.6211 8.4219-6.5469 14.113 1.5742 4.3164 5.7227 7.2109 10.328 7.2109z" fill="#9b1b90"/>
  <path d="m145.73 316.7 72.352-26.52-26.781-73.008-72.352 26.551zm16.746-66.262c1.9414-0.69141 3.9805-1.0547 6.0195-1.0547 7.3359 0 13.984 4.6055 16.516 11.516 1.6133 4.4102 1.4141 9.1797-0.55859 13.426-1.9727 4.2461-5.4961 7.5-9.9023 9.1133-1.9414 0.72266-3.9805 1.0859-6.0195 1.0859-7.3359 0-13.984-4.6406-16.516-11.547-3.3242-9.0859 1.3477-19.184 10.461-22.539z" fill="#9b1b90"/>
  <path d="m105.56 290.05c4.7383 12.965 17.371 21.32 30.992 20.793l-20.828-56.754c-10.527 8.2578-15.035 22.668-10.164 35.961z" fill="#9b1b90"/>
  <path d="m352.95 199.28c-4.1797-11.352-15.07-18.953-27.113-19.016l18.723 51.031c8.918-7.668 12.668-20.402 8.3906-32.016z" fill="#9b1b90"/>
  <path d="m270.43 378.53-62.055-77.781-48.957 17.965 62.02 77.781z" fill="#9b1b90"/>
  <path d="m363.68 198.87-2.2695-6.1797 6.1758-2.2656 2.2695 6.1797z" fill="#9b1b90"/>
  <path d="m382.2 192.05-6.1758 2.2656-2.2656-6.1797 6.1758-2.2656z" fill="#9b1b90"/>
  <path d="m392.29 181.34 2.2656 6.1797-6.1797 2.2656-2.2656-6.1797z" fill="#9b1b90"/>
  <path d="m354.55 144.1 5.9688 2.7656-2.7656 5.9688-5.9688-2.7656z" fill="#9b1b90"/>
  <path d="m349.45 170.74-2.7656 5.9727-5.9688-2.7656 2.7656-5.9727z" fill="#9b1b90"/>
  <path d="m346.27 161.99 2.7656-5.9727 5.9688 2.7656-2.7656 5.9727z" fill="#9b1b90"/>
  <path d="m368.76 223.31-2.7617 5.9688-5.9727-2.7656 2.7617-5.9688z" fill="#9b1b90"/>
  <path d="m392.62 234.36-2.7656 5.9688-5.9688-2.7656 2.7656-5.9688z" fill="#9b1b90"/>
  <path d="m380.7 228.84-2.7617 5.9688-5.9727-2.7656 2.7617-5.9688z" fill="#9b1b90"/>
  <path d="m396.51 308.68h-96.039c-4.5742 0-8.2578 3.7188-8.2578 8.293v61.031c0 4.5391 3.6836 8.2578 8.2578 8.2578h3.8164v27.473l31.617-27.473h60.605c4.5742 0 8.293-3.7188 8.293-8.2578v-61.031c0-4.5742-3.7188-8.293-8.293-8.293zm-17.586 50.359h-56.512v-6.582h56.512zm0-20.598h-56.512v-6.582h56.512z" fill="#9b1b90"/>
  <path d="m100.92 106.53v61.031c0 4.5391 3.7188 8.2578 8.293 8.2578h60.605l31.617 27.473v-27.473h3.8164c4.5742 0 8.2578-3.7188 8.2578-8.2578v-61.031c0-4.5742-3.6836-8.2578-8.2578-8.2578h-96.039c-4.5742 0-8.293 3.6836-8.293 8.2578zm28.906 14.352h56.512v6.582h-56.512zm0 20.605h56.512v6.582l-56.512-0.003906z" fill="#9b1b90"/>
  <path d="m179.54 354.44 4.0547 5.1836-5.1836 4.0508-4.0547-5.1836z" fill="#9b1b90"/>
  <path d="m182.92 369.46-0.46094-0.58984 5.1836-4.0547 0.46094 0.58984z" fill="#9b1b90"/>
  <path d="m162.21 342.95-4.0547-5.1836 5.1836-4.0508 4.0547 5.1836z" fill="#9b1b90"/>
  <path d="m171.44 344.07 4.0547 5.1836-5.1836 4.0508-4.0547-5.1836z" fill="#9b1b90"/>
  <path d="m334.7 105.89h6.582v6.582h-6.582z" fill="#9b1b90"/>
  <path d="m308.38 105.89h6.582v6.582h-6.582z" fill="#9b1b90"/>
  <path d="m321.54 105.89h6.582v6.582h-6.582z" fill="#9b1b90"/>
  <path d="m391.34 130.02h6.582v6.582h-6.582z" fill="#9b1b90"/>
  <path d="m404.5 130.02h6.582v6.582h-6.582z" fill="#9b1b90"/>
  <path d="m378.18 130.02h6.582v6.582h-6.582z" fill="#9b1b90"/>
  <path d="m236.06 308.69h6.582v6.582h-6.582z" fill="#9b1b90"/>
  <path d="m249.22 308.69h6.582v6.582h-6.582z" fill="#9b1b90"/>
  <path d="m262.38 308.69h6.582v6.582h-6.582z" fill="#9b1b90"/>
  <path d="m157.49 401.89h6.582v6.582h-6.582z" fill="#9b1b90"/>
  <path d="m170.65 401.89h6.582v6.582h-6.582z" fill="#9b1b90"/>
  <path d="m183.81 401.89h6.582v6.582h-6.582z" fill="#9b1b90"/>
  <path d="m106.89 355.96h6.582v6.582h-6.582z" fill="#9b1b90"/>
  <path d="m133.21 355.96h6.582v6.582h-6.582z" fill="#9b1b90"/>
  <path d="m120.05 355.96h6.582v6.582h-6.582z" fill="#9b1b90"/>
  <path d="m239.15 135.23h6.5781v-8.4688h8.4727v-6.582h-8.4727v-8.4727h-6.5781v8.4727h-8.4766v6.582h8.4766z" fill="#9b1b90"/>
  <path d="m381.13 396.82h6.582v6.582h-6.582z" fill="#9b1b90"/>
  <path d="m367.97 396.82h6.582v6.582h-6.582z" fill="#9b1b90"/>
  <path d="m354.81 396.82h6.582v6.582h-6.582z" fill="#9b1b90"/>
  <path d="m130.67 186.36h6.582v6.582h-6.582z" fill="#9b1b90"/>
  <path d="m143.83 186.36h6.582v6.582h-6.582z" fill="#9b1b90"/>
  <path d="m117.51 186.36h6.582v6.582h-6.582z" fill="#9b1b90"/>
 </g>
</svg>
