<svg xmlns="http://www.w3.org/2000/svg" viewBox="0 0 2048 2048">
  <path d="M1280 1152l768 443-768 444v-887zm128 222v443l384-222-384-221zm-256-222v256q-27 0-50-10t-40-27-28-41-10-50q0-27 10-50t27-40 41-28 50-10zm512-768v384h-384V384h384zm-128 256V512h-128v128h128zm-384-256v384H768V384h384zm-128 256V512H896v128h128zM640 384v384H256V384h384zm256 896q0 27-10 50t-27 40-41 28-50 10q-27 0-50-10t-40-27-28-41-10-50q0-27 10-50t27-40 41-28 50-10q27 0 50 10t40 27 28 41 10 50zm-384 0q0 27-10 50t-27 40-41 28-50 10q-27 0-50-10t-40-27-28-41-10-50q0-27 10-50t27-40 41-28 50-10q27 0 50 10t40 27 28 41 10 50zm640 256v128H384q-79 0-148-30t-122-83-83-122-31-149q0-79 30-148t83-122 122-83 149-31h1152q86 0 160 36t131 100q3 3 10 13t14 20 13 18 6 9q0 2 3 10t9 17 9 20 6 14q10 31 16 62t7 65q0 14-1 26t-4 27l-125-71q-3-50-24-93t-56-76-79-50-95-19H384q-53 0-99 20t-82 55-55 81-20 100q0 53 20 99t55 82 81 55 100 20h768z" />
</svg>
