<?xml version="1.0" encoding="UTF-8"?>
<svg width="512pt" height="512pt" version="1.1" viewBox="0 0 512 512" xmlns="http://www.w3.org/2000/svg">
 <g>
  <path d="m512 256c0 141.39-114.61 256-256 256s-256-114.61-256-256 114.61-256 256-256 256 114.61 256 256" fill="#fff"/>
  <path d="m369.8 291.85-14.746-2.3281c-1.6133-5.7812-3.8867-11.281-6.7344-16.312l8.7734-12.043c3.2266-4.5 2.7969-10.574-1.043-14.512l-9.4375-9.4844c-3.9375-3.9375-10.102-4.4062-14.605-1.0898l-11.949 8.7734c-5.0742-2.8867-10.527-5.1641-16.266-6.8242l-2.2773-14.652c-0.85156-5.5-5.5-9.4844-11.047-9.4844h-13.371c-5.5 0-10.195 3.9844-11.094 9.4844l-2.2305 14.652c-5.7383 1.6602-11.191 3.9375-16.312 6.8242l-11.902-8.7734c-4.5039-3.3125-10.668-2.8867-14.605 1.0898l-9.3906 9.4414c-3.8867 3.9375-4.3633 10.051-1.1367 14.551l8.8242 12.047c-2.8906 5.125-5.168 10.625-6.7344 16.312l-14.699 2.3281c-5.5 0.80469-9.4844 5.4531-9.4844 11.09v13.328c0 5.543 3.9844 10.242 9.4844 11.145l14.746 2.2227c0.90234 3.4648 2.0859 6.832 3.5547 10.012 0.90234 2.1289 1.9922 4.2148 3.2227 6.3555l-8.8203 12.043c-3.3203 4.4062-2.8438 10.523 1.043 14.551l9.3906 9.3477c3.8398 3.9375 10.102 4.4062 14.508 1.1836l11.949-8.8242c5.3125 2.9922 10.766 5.2695 16.359 6.832l2.2305 14.746c0.90234 5.4492 5.5938 9.4297 11.094 9.4297h13.371c5.5469 0 10.195-3.9844 11.047-9.4844l2.2773-14.695c5.5938-1.5664 11.098-3.8398 16.359-6.832l11.902 8.8242c4.457 3.2188 10.715 2.75 14.508-1.1445l9.3867-9.3906c3.9375-3.9297 4.4102-10.047 1.1367-14.551l-8.8672-12.043c1.1836-2.0859 2.2773-4.2266 3.2227-6.3555 1.4219-3.2227 2.6094-6.5898 3.5547-10.012l14.809-2.2148c5.4531-0.90234 9.4375-5.6016 9.4375-11.145v-13.328c0-5.5898-3.9844-10.285-9.4375-11.09m-55.129 43.891c-7.4062 8.7812-18.445 14.391-30.879 14.391-12.328 0-23.309-5.5039-30.719-14.184-6.0664-7.0664-9.6875-16.312-9.6875-26.34 0-22.391 18.074-40.523 40.406-40.523 22.328 0 40.363 18.133 40.363 40.523-0.003906 9.9219-3.5781 19.066-9.4844 26.133" fill="#f40056"/>
  <path d="m403.71 167.61h-295.41c-0.61719 0-1.2344-0.09375-1.8008-0.33203l-0.003906 153.63c0 10.906 8.8672 19.773 19.82 19.773h86.395c-1.1367-2.418-2.1328-5.1211-2.9414-7.8711l-12.469-1.8984c-7.2539-1.1836-12.52-7.3516-12.52-14.652v-13.324c0-7.3984 5.2617-13.562 12.52-14.605l12.422-1.9922c1.375-4.4102 3.1758-8.7266 5.3125-12.852l-7.4453-10.242c-4.2695-5.9258-3.6523-13.988 1.4688-19.156l9.3867-9.4375c2.75-2.7969 6.4492-4.3633 10.434-4.3633 3.1758 0 6.2109 0.99609 8.7734 2.9414l10.102 7.3984c4.0781-2.1328 8.3945-3.9375 12.852-5.3594l1.8984-12.422c1.1836-7.2539 7.3008-12.52 14.605-12.52h13.371c7.3008 0 13.418 5.2617 14.559 12.473l1.9453 12.473c4.457 1.4219 8.7734 3.2227 12.805 5.3594l10.148-7.3984c2.5586-1.8984 5.5938-2.9414 8.7734-2.9414 3.9375 0 7.6328 1.5664 10.434 4.3633l9.4375 9.4844c5.0742 5.168 5.6445 13.184 1.4219 19.109l-7.4453 10.242c2.1328 4.0781 3.8867 8.3945 5.3125 12.852l12.52 1.9922c7.1602 1.043 12.422 7.207 12.422 14.605v13.324c0 7.3008-5.2148 13.465-12.422 14.652l-12.613 1.8984c-0.80469 2.7031-1.8008 5.3594-2.8906 7.8711h30.82c10.906 0 19.773-8.8672 19.773-19.773l-0.015624-153.64c-0.57031 0.23828-1.1367 0.33203-1.7539 0.33203m-237.42 144.39h-28.262c-0.94922 0-1.7539-0.80469-1.7539-1.7539 0-0.99609 0.80469-1.8008 1.7539-1.8008h28.262c0.99609 0 1.7539 0.80469 1.7539 1.8008 0 0.94922-0.76172 1.7539-1.7539 1.7539m9.3867-30.254h-37.648c-0.94922 0-1.7539-0.80469-1.7539-1.7539 0-0.99609 0.80469-1.8008 1.7539-1.8008h37.648c0.94922 0 1.7539 0.80469 1.7539 1.8008 0 0.94922-0.80469 1.7539-1.7539 1.7539m12.473-30.25h-50.121c-0.94922 0-1.7539-0.75781-1.7539-1.7539 0-0.99609 0.80469-1.8008 1.7539-1.8008h50.121c0.99609 0 1.8008 0.80469 1.8008 1.8008 0 0.99609-0.80859 1.7539-1.8008 1.7539m15.645-30.207h-65.766c-0.94922 0-1.7539-0.80469-1.7539-1.8008 0-0.99609 0.80469-1.7539 1.7539-1.7539h65.77c0.99609 0 1.7539 0.75781 1.7539 1.7539 0 0.99609-0.76172 1.8008-1.7578 1.8008m170.14-30.25h-235.9c-0.94922 0-1.7539-0.80469-1.7539-1.8008 0-0.99609 0.80469-1.7539 1.7539-1.7539h235.9c0.99609 0 1.8008 0.75781 1.8008 1.7539 0 0.99609-0.80859 1.8008-1.8008 1.8008" fill="#f40056"/>
  <path d="m385.69 106.68h-259.37c-10.91 0-19.773 8.9141-19.773 19.82v35.754c0 0.99609 0.75391 1.8008 1.75 1.8008h295.41c0.99609 0 1.7969-0.80469 1.7969-1.8008l0.003906-35.754c0-10.906-8.9102-19.82-19.82-19.82m-240.23 41.926c-6.2539 0-11.348-5.1094-11.348-11.379s5.0938-11.348 11.348-11.348c6.2539 0 11.312 5.0781 11.312 11.348s-5.0586 11.379-11.312 11.379m39.43 0c-6.25 0-11.348-5.1094-11.348-11.379s5.0977-11.348 11.348-11.348 11.32 5.0781 11.32 11.348-5.0703 11.379-11.32 11.379m39.434 0c-6.25 0-11.348-5.1094-11.348-11.379s5.0977-11.348 11.348-11.348c6.2539 0 11.316 5.0781 11.316 11.348s-5.0625 11.379-11.316 11.379" fill="#f40056"/>
 </g>
</svg>
